<?xml version="1.0" encoding="UTF-8"?>
<svg width="200" height="200" xmlns="http://www.w3.org/2000/svg">
    <path d="M100 0C44.772 0 0 44.772 0 100s44.772 100 100 100 100-44.772 100-100S155.228 0 100 0zm45.975 144.275c-1.8 2.975-5.7 3.85-8.675 2.05-23.725-14.5-53.575-17.775-88.8-9.75-3.375.775-6.775-1.35-7.55-4.725-.775-3.375 1.35-6.775 4.725-7.55 38.575-8.825 71.575-5.025 98.25 11.3 2.975 1.8 3.85 5.7 2.05 8.675zm12.275-27.325c-2.275 3.7-7.1 4.875-10.8 2.6-27.175-16.725-68.6-21.575-100.725-11.8-4.15 1.25-8.525-1.1-9.775-5.25-1.225-4.15 1.1-8.525 5.25-9.775 36.75-11.15 82.425-5.75 113.775 13.425 3.7 2.275 4.875 7.1 2.275 10.8zm1.05-28.425c-32.575-19.35-86.325-21.125-117.4-11.675-4.975 1.5-10.225-1.3-11.725-6.275s1.3-10.225 6.275-11.725c35.9-10.9 95.625-8.8 133.375 13.525 4.45 2.625 5.925 8.375 3.3 12.8-2.625 4.45-8.375 5.925-12.825 3.35z" fill="#1DB954"/>
</svg> 